<?xml version="1.0" encoding="UTF-8"?>
<svg width="1054px" height="104px" viewBox="0 0 1054 104" version="1.1" xmlns="http://www.w3.org/2000/svg" xmlns:xlink="http://www.w3.org/1999/xlink">
    <title>ratings-mobile-white</title>
    <g id="Page-1" stroke="none" stroke-width="1" fill="none" fill-rule="evenodd">
        <g id="Artboard" transform="translate(-57.000000, -1792.000000)">
            <g id="ratings-mobile-white" transform="translate(57.000000, 1792.000000)">
                <g id="Group-2" transform="translate(0.000000, 60.778521)">
                    <polygon id="Star" stroke="#FF9B00" stroke-width="2.52" points="250.097106 40.1229858 245.929839 26.3720825 257.397597 17.6926553 243.009643 17.3999503 238.284667 3.82994866 233.559691 17.3999503 219.171736 17.6926553 230.639494 26.3720825 226.472227 40.1229858 238.284667 31.9171651"></polygon>
                    <polygon id="Star" fill="#FF9B00" fill-rule="nonzero" points="22.7616421 33.4491446 8.69417363 43.2214792 13.6569853 26.8454902 0 16.509136 17.1346547 16.1605529 22.7616421 0 28.3886296 16.1605529 45.5232842 16.509136 31.8662989 26.8454902 36.8291106 43.2214792"></polygon>
                    <polygon id="Star" fill="#FF9B00" fill-rule="nonzero" points="75.6661834 33.4491446 61.598715 43.2214792 66.5615266 26.8454902 52.9045413 16.509136 70.039196 16.1605529 75.6661834 0 81.2931709 16.1605529 98.4278256 16.509136 84.7708403 26.8454902 89.7336519 43.2214792"></polygon>
                    <polygon id="Star" fill="#FF9B00" fill-rule="nonzero" points="131.089989 33.4491446 117.02252 43.2214792 121.985332 26.8454902 108.328347 16.509136 125.463001 16.1605529 131.089989 0 136.716976 16.1605529 153.851631 16.509136 140.194645 26.8454902 145.157457 43.2214792"></polygon>
                    <polygon id="Star" fill="#FF9B00" fill-rule="nonzero" points="186.513794 33.4491446 172.446325 43.2214792 177.409137 26.8454902 163.752152 16.509136 180.886806 16.1605529 186.513794 0 192.140781 16.1605529 209.275435 16.509136 195.618451 26.8454902 200.581262 43.2214792"></polygon>
                    <polygon id="Combined-Shape" fill="#FF9B00" fill-rule="nonzero" points="238.306899 0 243.948702 15.9859659 248.235759 16.0706792 248.235759 25.9545242 247.435529 26.555471 248.235759 29.1653067 248.235759 39.8937636 238.306899 33.0877842 224.202393 42.7545457 229.178271 26.555471 215.485328 16.3307833 232.665098 15.9859659"></polygon>
                </g>
                <g id="Facebook_Logo_(2019)" transform="translate(17.723114, 6.287433)" fill="#000000" fill-rule="nonzero">
                    <path d="M14.363583,43.3336996 L5.8200286,43.3336996 L5.8200286,21.973157 L0,21.973157 L0,15.0185987 L5.81980186,15.0185987 L5.81980186,10.0699312 C5.81980186,4.20575338 8.39391011,0 16.9143377,0 C18.7164175,0 21.5456012,0.364293967 21.5456012,0.364293967 L21.5456012,6.82198439 L18.5740287,6.82198439 C15.5462262,6.82198439 14.3640364,7.74568109 14.3640364,10.2993772 L14.3640364,15.0185987 L21.4322343,15.0185987 L20.8028214,21.973157 L14.3638097,21.973157 L14.363583,43.3336996 Z M33.9669829,14.4628343 C33.8425061,14.4628343 33.7144015,14.4673823 33.5876405,14.4705659 C25.6655802,14.4705659 22.0410144,20.447079 22.0410144,28.9308989 C22.0410144,39.6182195 26.7425655,43.8956037 33.6495556,43.8956037 C37.6012982,43.8956037 40.1976263,42.2274012 41.7756932,39.1143023 L41.7756932,43.3366559 L49.9018308,43.3366559 L49.9018308,15.0215548 L41.7756932,15.0215548 L41.7756932,19.3760275 C40.4871653,16.5744659 37.8182824,14.4960346 33.9669829,14.4628343 Z M36.0332075,21.1536091 C39.3605253,21.1536091 41.3575962,23.4812704 41.3575962,27.4405226 L41.3653051,31.4843676 C41.3653051,34.1529005 39.7158171,37.2748678 36.0332075,37.2748678 C30.3716658,37.2748678 30.5228973,31.1437231 30.5228973,29.1016758 C30.5228973,22.2326197 33.539363,21.1536091 36.0332075,21.1536091 Z M53.1834169,29.1805835 C53.1834169,25.7398019 53.0194198,14.4812537 67.6446535,14.4812537 C73.5154705,14.4812537 75.9669158,16.3534336 75.9669158,16.3534336 L73.9965995,22.4825317 C73.9965995,22.4825317 71.5483285,21.1304144 68.3581846,21.1304144 C64.2722158,21.1304144 61.6650044,23.5060569 61.6650044,27.6858867 L61.669539,30.6830118 C61.669539,34.6993413 64.18515,37.3803812 68.3665738,37.3803812 C71.272847,37.3803812 73.9514795,36.0155295 73.9514795,36.0155295 L75.9168076,42.0166018 C75.9168076,42.0166018 73.6753178,43.9006066 67.6856923,43.9006066 C53.760159,43.9006066 53.1838018,33.7995216 53.1838018,29.1805835 L53.1834169,29.1805835 Z M123.613426,14.4705659 C131.53573,14.4705659 135.217432,20.447079 135.217432,28.9308989 C135.217432,39.6182195 130.515655,43.8956037 123.608665,43.8956037 C119.656922,43.8956037 116.735684,42.2276286 115.157618,39.1143023 L115.157618,43.3366559 L107.133737,43.3334722 L107.133737,0.860934431 L115.653031,0.115746335 L115.653031,18.9924046 C116.882608,15.6898819 120.923457,14.4705659 123.613653,14.4705659 L123.613426,14.4705659 Z M121.225013,21.1536091 C117.897695,21.1536091 115.653031,23.4812704 115.653031,27.4405226 L115.645071,31.4843676 C115.640107,34.1529005 117.199582,37.2748678 121.225013,37.2748678 C126.886554,37.2748678 126.735323,31.1437231 126.735323,29.1016758 C126.735323,22.2326197 123.719084,21.1536091 121.225013,21.1536091 Z M90.7485958,14.4937606 C81.7631373,14.4937606 77.0194138,19.4074086 77.0194138,28.1390939 L77.0194138,29.7613617 C77.0194138,41.0942695 83.6810781,44.0120323 91.6231079,44.0120323 C99.3427118,44.0120323 102.836906,41.846507 102.836906,41.846507 L101.242741,36.0796563 C101.242741,36.0796563 97.1325112,37.8335884 92.6445434,37.8335884 C87.9919669,37.8335884 85.9910415,36.6442892 85.4781698,32.1599714 L103.518014,32.1599714 L103.518014,27.533529 C103.518014,18.0618859 98.1940786,14.4937606 90.7483691,14.4937606 L90.7485958,14.4937606 Z M90.9651265,20.2685704 C94.0754601,20.2685704 96.0908964,22.1814548 95.9802503,26.6177914 L85.4938144,26.6177914 C85.6756549,21.9485979 87.8491246,20.2687978 90.9651265,20.2687978 L90.9651265,20.2685704 Z M152.204552,14.4551027 C142.977168,14.4551027 138.119398,19.6702824 138.119398,29.0161737 C138.119398,41.8392304 146.493129,43.9033354 152.21997,43.9033354 C160.603677,43.9033354 166.181327,39.3764939 166.181327,29.1326022 C166.181327,18.4705227 159.909871,14.4551027 152.204552,14.4551027 L152.204552,14.4551027 Z M152.088464,21.1768039 C156.145864,21.1768039 157.753633,24.2223653 157.753633,27.6890703 L157.753633,30.6695953 C157.753633,34.8692089 155.503981,37.29829 152.073046,37.29829 C148.86431,37.29829 146.609216,35.0261145 146.609216,30.6695953 L146.609216,27.6890703 C146.609216,23.0428441 149.29261,21.1768039 152.088464,21.1768039 L152.088464,21.1768039 Z M183.153255,14.4551027 C173.925872,14.4551027 169.068101,19.6702824 169.068101,29.0161737 C169.068101,41.8392304 177.441832,43.9033354 183.168673,43.9033354 C191.552153,43.9033354 197.13003,39.3764939 197.13003,29.1326022 C197.13003,18.4705227 190.858348,14.4551027 183.153255,14.4551027 Z M183.037167,21.1768039 C187.094568,21.1768039 188.70211,24.2223653 188.70211,27.6890703 L188.70211,30.6695953 C188.70211,34.8692089 186.452458,37.29829 183.021749,37.29829 C179.813013,37.29829 177.557919,35.0261145 177.557919,30.6695953 L177.557919,27.6890703 C177.557919,23.0428441 180.241313,21.1768039 183.037167,21.1768039 L183.037167,21.1768039 Z M200.349423,43.3336996 L200.349423,0.860934431 L208.89343,0.115746335 L208.89343,28.5836599 L217.370098,15.0185987 L226.393195,15.0185987 L217.550578,29.0680207 L226.733749,43.3336996 L217.685032,43.3336996 L208.89343,29.4818878 L208.89343,43.3336996 L200.349423,43.3336996 Z" id="Shape"></path>
                </g>
                <g id="Group-2" transform="translate(394.684674, 60.778521)">
                    <polygon id="Star" stroke="#FF9B00" stroke-width="2.52" points="251.230775 40.1229858 247.063508 26.3720825 258.531266 17.6926553 244.143311 17.3999503 239.418335 3.82994866 234.693359 17.3999503 220.305405 17.6926553 231.773163 26.3720825 227.605895 40.1229858 239.418335 31.9171651"></polygon>
                    <polygon id="Star" fill="#FF9B00" fill-rule="nonzero" points="22.7616421 33.4491446 8.69417363 43.2214792 13.6569853 26.8454902 0 16.509136 17.1346547 16.1605529 22.7616421 0 28.3886296 16.1605529 45.5232842 16.509136 31.8662989 26.8454902 36.8291106 43.2214792"></polygon>
                    <polygon id="Star" fill="#FF9B00" fill-rule="nonzero" points="75.6661834 33.4491446 61.598715 43.2214792 66.5615266 26.8454902 52.9045413 16.509136 70.039196 16.1605529 75.6661834 0 81.2931709 16.1605529 98.4278256 16.509136 84.7708403 26.8454902 89.7336519 43.2214792"></polygon>
                    <polygon id="Star" fill="#FF9B00" fill-rule="nonzero" points="131.089989 33.4491446 117.02252 43.2214792 121.985332 26.8454902 108.328347 16.509136 125.463001 16.1605529 131.089989 0 136.716976 16.1605529 153.851631 16.509136 140.194645 26.8454902 145.157457 43.2214792"></polygon>
                    <polygon id="Star" fill="#FF9B00" fill-rule="nonzero" points="186.513794 33.4491446 172.446325 43.2214792 177.409137 26.8454902 163.752152 16.509136 180.886806 16.1605529 186.513794 0 192.140781 16.1605529 209.275435 16.509136 195.618451 26.8454902 200.581262 43.2214792"></polygon>
                    <polygon id="Combined-Shape" fill="#FF9B00" fill-rule="nonzero" points="239.692494 0 242.063562 6.72126608 242.063562 34.7129186 239.692494 33.0877842 225.587988 42.7545457 230.563866 26.555471 216.870924 16.3307833 234.050693 15.9859659"></polygon>
                </g>
                <g id="Group-2" transform="translate(791.468734, 60.778521)">
                    <polygon id="Star" stroke="#FF9B00" stroke-width="2.52" points="251.230775 40.1229858 247.063508 26.3720825 258.531266 17.6926553 244.143311 17.3999503 239.418335 3.82994866 234.693359 17.3999503 220.305405 17.6926553 231.773163 26.3720825 227.605895 40.1229858 239.418335 31.9171651"></polygon>
                    <polygon id="Star" fill="#FF9B00" fill-rule="nonzero" points="22.7616421 33.4491446 8.69417363 43.2214792 13.6569853 26.8454902 0 16.509136 17.1346547 16.1605529 22.7616421 4.53840252e-13 28.3886296 16.1605529 45.5232842 16.509136 31.8662989 26.8454902 36.8291106 43.2214792"></polygon>
                    <polygon id="Star" fill="#FF9B00" fill-rule="nonzero" points="75.6661834 33.4491446 61.598715 43.2214792 66.5615266 26.8454902 52.9045413 16.509136 70.039196 16.1605529 75.6661834 4.53840252e-13 81.2931709 16.1605529 98.4278256 16.509136 84.7708403 26.8454902 89.7336519 43.2214792"></polygon>
                    <polygon id="Star" fill="#FF9B00" fill-rule="nonzero" points="131.089989 33.4491446 117.02252 43.2214792 121.985332 26.8454902 108.328347 16.509136 125.463001 16.1605529 131.089989 4.53840252e-13 136.716976 16.1605529 153.851631 16.509136 140.194645 26.8454902 145.157457 43.2214792"></polygon>
                    <polygon id="Star" fill="#FF9B00" fill-rule="nonzero" points="186.513794 33.4491446 172.446325 43.2214792 177.409137 26.8454902 163.752152 16.509136 180.886806 16.1605529 186.513794 4.53840252e-13 192.140781 16.1605529 209.275435 16.509136 195.618451 26.8454902 200.581262 43.2214792"></polygon>
                    <polygon id="Combined-Shape" fill="#FF9B00" fill-rule="nonzero" points="239.692494 0 244.582826 13.8616944 244.582826 36.4398669 239.692494 33.0877842 225.587988 42.7545457 230.563866 26.555471 216.870924 16.3307833 234.050693 15.9859659"></polygon>
                </g>
                <g id="873" transform="translate(416.606561, 4.191622)" fill="#000000" fill-rule="nonzero">
                    <path d="M0.0260098766,0 L29.8593383,0 L29.8593383,5.61878076 L18.128884,5.61878076 L18.128884,37.2047307 L11.6784346,37.2047307 L11.6784346,5.61878076 L0,5.61878076 L0,0 L0.0260098766,0 Z M28.5848544,10.2660901 L34.0989482,10.2660901 L34.0989482,15.4647751 L34.2029877,15.4647751 C34.3850568,14.7296075 34.7231853,14.0206959 35.2173729,13.3380403 C35.7115605,12.6553847 36.3097877,11.9989851 37.0120545,11.4476094 C37.7143211,10.8699778 38.4946174,10.423626 39.3529434,10.0560422 C40.2112692,9.71471442 41.0956051,9.53092252 41.9799408,9.53092252 C42.6561975,9.53092252 43.1503854,9.55717851 43.410484,9.58343449 C43.6705829,9.60969048 43.9306816,9.66220245 44.2167902,9.68845844 L44.2167902,15.4122631 C43.8006322,15.3334952 43.3844741,15.2809832 42.9423064,15.2284712 C42.5001384,15.1759593 42.0839804,15.1497033 41.6678223,15.1497033 C40.6794471,15.1497033 39.7430915,15.3597512 38.8587558,15.753591 C37.9744198,16.1474307 37.2201335,16.7513184 36.5698865,17.5127419 C35.9196396,18.3004215 35.399442,19.2456369 35.0092939,20.4009003 C34.6191458,21.5561635 34.4370767,22.8689628 34.4370767,24.365554 L34.4370767,37.1784746 L28.5588445,37.1784746 L28.5588445,10.2660901 L28.5848544,10.2660901 Z M71.241052,37.2047307 L65.4668595,37.2047307 L65.4668595,33.4501248 L65.36282,33.4501248 C64.6345434,34.8154361 63.5681384,35.8919314 62.1375952,36.7058669 C60.707052,37.5198025 59.2504988,37.9398982 57.767936,37.9398982 C54.2566026,37.9398982 51.7076347,37.0734508 50.147042,35.3142997 C48.5864496,33.5551488 47.8061532,30.9032943 47.8061532,27.3587363 L47.8061532,10.2660901 L53.6843854,10.2660901 L53.6843854,26.7811045 C53.6843854,29.1441432 54.1265531,30.8245262 55.036899,31.7959977 C55.9212347,32.7674692 57.1957186,33.2663328 58.8083311,33.2663328 C60.056805,33.2663328 61.0711904,33.0825411 61.9035062,32.6887013 C62.7358223,32.2948615 63.4120792,31.7959977 63.9062669,31.1395981 C64.4264644,30.5094545 64.7906026,29.721775 65.0246915,28.8290714 C65.2587805,27.936368 65.36282,26.9648965 65.36282,25.9146571 L65.36282,10.2923461 L71.241052,10.2923461 L71.241052,37.2047307 L71.241052,37.2047307 Z M81.2548544,28.5665115 C81.4369237,30.2994065 82.0871705,31.507182 83.2055952,32.2160934 C84.3500298,32.8987492 85.7025434,33.2663328 87.289146,33.2663328 C87.8353533,33.2663328 88.4595903,33.2138208 89.161857,33.1350529 C89.8641236,33.056285 90.5403805,32.872493 91.1386076,32.6361893 C91.7628447,32.3998853 92.2570323,32.0323017 92.6731904,31.559694 C93.0633385,31.0870861 93.2454076,30.4831984 93.2193978,29.721775 C93.1933879,28.9603513 92.9072793,28.3302078 92.3870818,27.8576001 C91.8668842,27.3587363 91.2166372,26.9911526 90.4103311,26.6760807 C89.6040249,26.3872648 88.6936793,26.1247049 87.6532842,25.9146571 C86.6128891,25.7046092 85.572494,25.4683055 84.5060892,25.2320015 C83.4136742,24.9956976 82.3472694,24.6806259 81.3328842,24.3392979 C80.318499,23.9979701 79.4081534,23.5253624 78.601847,22.9214748 C77.7955409,22.3438431 77.1452941,21.5824196 76.6771162,20.6634601 C76.1829286,19.7445007 75.9488396,18.6154933 75.9488396,17.2501821 C75.9488396,15.7798469 76.312978,14.5720716 77.0152447,13.5743442 C77.7175113,12.5766168 78.627857,11.7889372 79.694262,11.1850496 C80.7866767,10.5811619 81.983131,10.1610662 83.3096347,9.89850632 C84.6361384,9.66220245 85.9106224,9.53092252 87.1070767,9.53092252 C88.4856003,9.53092252 89.812104,9.68845844 91.0605781,9.97727426 C92.3090522,10.2660901 93.4534866,10.7386978 94.4678718,11.4213534 C95.4822571,12.0777531 96.314573,12.9442006 96.9908299,13.99444 C97.6670866,15.0446794 98.0832447,16.3312226 98.2653138,17.8278138 L92.1269829,17.8278138 C91.8408743,16.4099906 91.2166372,15.4385191 90.2022521,14.9659114 C89.1878669,14.4670477 88.0174224,14.2307438 86.7169286,14.2307438 C86.3007705,14.2307438 85.8065829,14.2569998 85.2343657,14.3357678 C84.6621483,14.4145357 84.1419508,14.5458156 83.6217532,14.7296075 C83.1275656,14.9133994 82.7114076,15.2022153 82.3472694,15.5697991 C82.0091409,15.9373828 81.8270718,16.4099906 81.8270718,17.0138782 C81.8270718,17.7490458 82.0871705,18.3266775 82.5813583,18.7730292 C83.075546,19.219381 83.7257927,19.5869647 84.5320989,19.9020366 C85.3384052,20.1908524 86.2487509,20.4534122 87.289146,20.6634601 C88.3295409,20.873508 89.3959459,21.1098119 90.4883607,21.3461157 C91.5547657,21.5824196 92.5951608,21.8974915 93.6355559,22.2388193 C94.6759508,22.580147 95.5862966,23.0527547 96.3926028,23.6566424 C97.1989089,24.26053 97.8491557,24.9956976 98.3433435,25.8884012 C98.8375312,26.7811045 99.0976298,27.9101119 99.0976298,29.2229112 C99.0976298,30.8245262 98.7334917,32.1635816 98.0052151,33.2925889 C97.2769385,34.3953402 96.3405829,35.3142997 95.1961483,35.9969554 C94.0517137,36.679611 92.7512199,37.2047307 91.3466867,37.5198025 C89.9421534,37.8348742 88.5376199,37.9924102 87.1590966,37.9924102 C85.4684545,37.9924102 83.907862,37.8086183 82.4773188,37.4147785 C81.0467756,37.0209387 79.7983015,36.443307 78.7579064,35.6818836 C77.7175113,34.894204 76.8851952,33.9227325 76.2869681,32.7674692 C75.688741,31.6122058 75.3766224,30.2206386 75.3246026,28.6190235 L81.2548544,28.6190235 L81.2548544,28.5665115 Z M100.658222,10.2660901 L105.105911,10.2660901 L105.105911,2.17924675 L110.984143,2.17924675 L110.984143,10.2660901 L116.290158,10.2660901 L116.290158,14.7033516 L110.984143,14.7033516 L110.984143,29.0916312 C110.984143,29.721775 111.010153,30.2468947 111.062173,30.7195024 C111.114193,31.1658542 111.244242,31.559694 111.426311,31.8747656 C111.608381,32.1898375 111.894489,32.4261415 112.284637,32.5836773 C112.674786,32.7412131 113.168973,32.8199812 113.84523,32.8199812 C114.261388,32.8199812 114.677546,32.8199812 115.093704,32.7937251 C115.509862,32.7674692 115.92602,32.7149572 116.342178,32.6099332 L116.342178,37.2047307 C115.691931,37.2834986 115.041684,37.3360106 114.443457,37.4147785 C113.81922,37.4935464 113.194983,37.5198025 112.544736,37.5198025 C110.984143,37.5198025 109.735669,37.3622665 108.799314,37.0734508 C107.862958,36.7846348 107.108672,36.3382832 106.588474,35.7606515 C106.042267,35.1830197 105.704139,34.4741083 105.49606,33.6076606 C105.31399,32.7412131 105.183941,31.7434857 105.157931,30.6407345 L105.157931,14.7558635 L100.710242,14.7558635 L100.710242,10.2660901 L100.658222,10.2660901 Z M120.451739,10.2660901 L126.017852,10.2660901 L126.017852,13.915672 L126.121892,13.915672 C126.954208,12.3403129 128.098642,11.2375615 129.581205,10.5549059 C131.063768,9.87225034 132.650371,9.53092252 134.393033,9.53092252 C136.499832,9.53092252 138.320524,9.89850632 139.881116,10.6599299 C141.441709,11.3950975 142.742203,12.4190809 143.782598,13.7318801 C144.822993,15.0446794 145.577279,16.5675265 146.097477,18.3004215 C146.617674,20.0333165 146.877773,21.8974915 146.877773,23.8666902 C146.877773,25.6783533 146.643684,27.4375042 146.175506,29.1178873 C145.707329,30.8245262 145.005062,32.3211174 144.068707,33.6339167 C143.132351,34.946716 141.935897,35.9706993 140.479344,36.7583789 C139.02279,37.5460585 137.332149,37.9398982 135.355398,37.9398982 C134.497072,37.9398982 133.638746,37.8611303 132.78042,37.7035943 C131.922094,37.5460585 131.089778,37.2834986 130.309482,36.9421708 C129.529186,36.6008431 128.774899,36.1544913 128.124652,35.6031156 C127.448395,35.0517398 126.902188,34.4215963 126.43401,33.7126846 L126.329971,33.7126846 L126.329971,47.1557489 L120.451739,47.1557489 L120.451739,10.2660901 L120.451739,10.2660901 Z M140.999541,23.7616664 C140.999541,22.5538911 140.843482,21.3723718 140.531363,20.2171084 C140.219245,19.061845 139.751067,18.0641176 139.12683,17.1714141 C138.502593,16.2787107 137.722297,15.5697991 136.811951,15.0446794 C135.875595,14.5195597 134.80919,14.2307438 133.612736,14.2307438 C131.141798,14.2307438 129.269087,15.0971913 128.020613,16.8300863 C126.772139,18.5629813 126.147902,20.873508 126.147902,23.7616664 C126.147902,25.1269775 126.303961,26.3872648 126.642089,27.5425282 C126.980218,28.6977915 127.448395,29.6955189 128.124652,30.5357104 C128.774899,31.375902 129.555195,32.0323017 130.465541,32.5049094 C131.375887,33.003773 132.442292,33.2400769 133.638746,33.2400769 C134.99126,33.2400769 136.109684,32.9512612 137.04604,32.3998853 C137.982395,31.8485097 138.736682,31.1133422 139.334909,30.2468947 C139.933136,29.3541911 140.375304,28.3564637 140.635403,27.2274563 C140.869492,26.098449 140.999541,24.9431858 140.999541,23.7616664 L140.999541,23.7616664 Z M151.377482,0 L157.255714,0 L157.255714,5.61878076 L151.377482,5.61878076 L151.377482,0 Z M151.377482,10.2660901 L157.255714,10.2660901 L157.255714,37.2047307 L151.377482,37.2047307 L151.377482,10.2660901 Z M162.509709,0 L168.387941,0 L168.387941,37.2047307 L162.509709,37.2047307 L162.509709,0 Z M186.412786,37.9398982 C184.279976,37.9398982 182.381255,37.5723144 180.716623,36.8634029 C179.05199,36.1544913 177.647457,35.1567638 176.477013,33.9227325 C175.332578,32.6624452 174.448242,31.1658542 173.850015,29.432959 C173.251788,27.700064 172.93967,25.7833771 172.93967,23.7091544 C172.93967,21.6611875 173.251788,19.7707566 173.850015,18.0378616 C174.448242,16.3049666 175.332578,14.8083755 176.477013,13.5480882 C177.621447,12.2878009 179.05199,11.3163295 180.716623,10.6074179 C182.381255,9.89850632 184.279976,9.53092252 186.412786,9.53092252 C188.545596,9.53092252 190.444317,9.89850632 192.108949,10.6074179 C193.773581,11.3163295 195.178114,12.3140569 196.348558,13.5480882 C197.492993,14.8083755 198.377329,16.3049666 198.975556,18.0378616 C199.573783,19.7707566 199.885902,21.6611875 199.885902,23.7091544 C199.885902,25.7833771 199.573783,27.700064 198.975556,29.432959 C198.377329,31.1658542 197.492993,32.6624452 196.348558,33.9227325 C195.204124,35.1830197 193.773581,36.1544913 192.108949,36.8634029 C190.444317,37.5723144 188.545596,37.9398982 186.412786,37.9398982 Z M186.412786,33.2400769 C187.71328,33.2400769 188.857714,32.9512612 189.820079,32.3998853 C190.782445,31.8485097 191.562741,31.1133422 192.186978,30.2206386 C192.811215,29.3279352 193.253383,28.3039517 193.565502,27.1749443 C193.85161,26.045937 194.00767,24.8906737 194.00767,23.7091544 C194.00767,22.5538911 193.85161,21.4248836 193.565502,20.2696203 C193.279393,19.114357 192.811215,18.1166296 192.186978,17.2239261 C191.562741,16.3312226 190.782445,15.622311 189.820079,15.0709354 C188.857714,14.5195597 187.71328,14.2307438 186.412786,14.2307438 C185.112292,14.2307438 183.967857,14.5195597 183.005492,15.0709354 C182.043126,15.622311 181.26283,16.3574786 180.638593,17.2239261 C180.014356,18.1166296 179.572188,19.114357 179.26007,20.2696203 C178.973961,21.4248836 178.817902,22.5538911 178.817902,23.7091544 C178.817902,24.8906737 178.973961,26.045937 179.26007,27.1749443 C179.546178,28.3039517 180.014356,29.3279352 180.638593,30.2206386 C181.26283,31.1133422 182.043126,31.8485097 183.005492,32.3998853 C183.967857,32.9775171 185.112292,33.2400769 186.412786,33.2400769 L186.412786,33.2400769 Z M201.602554,10.2660901 L206.050243,10.2660901 L206.050243,2.17924675 L211.928474,2.17924675 L211.928474,10.2660901 L217.234488,10.2660901 L217.234488,14.7033516 L211.928474,14.7033516 L211.928474,29.0916312 C211.928474,29.721775 211.954485,30.2468947 212.006504,30.7195024 C212.058524,31.1658542 212.188573,31.559694 212.370642,31.8747656 C212.552712,32.1898375 212.83882,32.4261415 213.228968,32.5836773 C213.619116,32.7412131 214.113303,32.8199812 214.789562,32.8199812 C215.205719,32.8199812 215.621876,32.8199812 216.038035,32.7937251 C216.454193,32.7674692 216.870352,32.7149572 217.286509,32.6099332 L217.286509,37.2047307 C216.636262,37.2834986 215.986015,37.3360106 215.387788,37.4147785 C214.76355,37.4935464 214.139315,37.5198025 213.489067,37.5198025 C211.928474,37.5198025 210.68,37.3622665 209.743645,37.0734508 C208.807289,36.7846348 208.053003,36.3382832 207.532805,35.7606515 C206.986598,35.1830197 206.64847,34.4741083 206.440391,33.6076606 C206.258322,32.7412131 206.128272,31.7434857 206.102262,30.6407345 L206.102262,14.7558635 L201.654573,14.7558635 L201.654573,10.2660901 L201.602554,10.2660901 Z" id="Shape"></path>
                </g>
                <g id="Group-3" transform="translate(838.583260, 0.000000)" fill="#000000" fill-rule="nonzero">
                    <path d="M72.6744646,29.3686004 C72.6744646,37.3976526 66.3826031,43.3141272 58.6610593,43.3141272 C50.9395155,43.3141272 44.647654,37.3976526 44.647654,29.3686004 C44.647654,21.2829613 50.9395155,15.4230736 58.6610593,15.4230736 C66.3826031,15.4230736 72.6744646,21.2829613 72.6744646,29.3686004 Z M66.5400571,29.3686004 C66.5400571,24.3512287 62.8934226,20.9182902 58.6610593,20.9182902 C54.428696,20.9182902 50.7820616,24.3512287 50.7820616,29.3686004 C50.7820616,34.3356726 54.428696,37.8189106 58.6610593,37.8189106 C62.8934226,37.8189106 66.5400571,34.3293852 66.5400571,29.3686004 Z" id="Shape"></path>
                    <path d="M102.905631,29.3686004 C102.905631,37.3976526 96.6137696,43.3141272 88.8922258,43.3141272 C81.170682,43.3141272 74.8788205,37.3976526 74.8788205,29.3686004 C74.8788205,21.2892488 81.170682,15.4230736 88.8922258,15.4230736 C96.6137696,15.4230736 102.905631,21.2829613 102.905631,29.3686004 Z M96.7712236,29.3686004 C96.7712236,24.3512287 93.1245891,20.9182902 88.8922258,20.9182902 C84.6598625,20.9182902 81.0132281,24.3512287 81.0132281,29.3686004 C81.0132281,34.3356726 84.6598625,37.8189106 88.8922258,37.8189106 C93.1245891,37.8189106 96.7712236,34.3293852 96.7712236,29.3686004 Z" id="Shape"></path>
                    <path d="M131.877166,16.2655897 L131.877166,41.3021486 C131.877166,51.6009642 125.793143,55.807257 118.600645,55.807257 C111.830123,55.807257 107.755214,51.2865925 106.218463,47.5895818 L111.559303,45.3701179 C112.510325,47.6398813 114.840644,50.3183278 118.594347,50.3183278 C123.198302,50.3183278 126.051368,47.4826954 126.051368,42.1446647 L126.051368,40.1389735 L125.837231,40.1389735 C124.464232,41.830293 121.819005,43.3078398 118.48098,43.3078398 C111.496321,43.3078398 105.097391,37.2341793 105.097391,29.4188999 C105.097391,21.5470335 111.496321,15.4230736 118.48098,15.4230736 C121.812707,15.4230736 124.457934,16.9006204 125.837231,18.5416405 L126.051368,18.5416405 L126.051368,16.2718771 L131.877166,16.2718771 L131.877166,16.2655897 Z M126.485941,29.4188999 C126.485941,24.5084146 123.2046,20.9182902 119.02892,20.9182902 C114.796557,20.9182902 111.250693,24.5084146 111.250693,29.4188999 C111.250693,34.2790857 114.796557,37.8189106 119.02892,37.8189106 C123.2046,37.8189106 126.485941,34.2790857 126.485941,29.4188999 Z" id="Shape"></path>
                    <polygon id="Path" points="141.481859 1.5907206 141.481859 42.4590363 135.498608 42.4590363 135.498608 1.5907206"></polygon>
                    <path d="M164.797646,33.9584266 L169.559055,37.127293 C168.022304,39.3970564 164.318986,43.3078398 157.920056,43.3078398 C149.984375,43.3078398 144.057807,37.1838799 144.057807,29.362313 C144.057807,21.0691886 150.03476,15.4167862 157.233557,15.4167862 C164.482738,15.4167862 168.028602,21.176075 169.187464,24.2883544 L169.823578,25.8727876 L151.149534,33.5937555 C152.579217,36.3916633 154.802467,37.8189106 157.920056,37.8189106 C161.043943,37.8189106 163.21051,36.2847769 164.797646,33.9584266 Z M150.141829,28.941055 L162.624781,23.7664975 C161.938282,22.0248785 159.872485,20.8114039 157.441396,20.8114039 C154.323807,20.8114039 149.984375,23.5590122 150.141829,28.941055 L150.141829,28.941055 Z" id="Shape"></path>
                    <path d="M21.9994718,25.7407515 L21.9994718,19.8242768 L41.9709362,19.8242768 C42.1661791,20.8554159 42.2669497,22.0751779 42.2669497,23.3955389 C42.2669497,27.8344667 41.0514048,33.3233959 37.1339495,37.2341793 C33.3235629,41.1952622 28.4550855,43.3078398 22.0057699,43.3078398 C10.0518629,43.3078398 0,33.5874681 0,21.6539199 C0,9.72037171 10.0518629,0 22.0057699,0 C28.6188376,0 33.3298611,2.59042247 36.8694268,5.9667741 L32.6874488,10.1416297 C30.1492904,7.76497999 26.7104952,5.91647463 21.9994718,5.91647463 C13.2702225,5.91647463 6.44301736,12.9395375 6.44301736,21.6539199 C6.44301736,30.3683023 13.2702225,37.3913652 21.9994718,37.3913652 C27.6615173,37.3913652 30.8861751,35.1216018 32.9519715,33.0593237 C34.627282,31.3868665 35.7294599,28.9976419 36.1640329,25.734464 L21.9994718,25.7407515 Z" id="Path"></path>
                </g>
            </g>
        </g>
    </g>
</svg>