<?xml version="1.0" encoding="UTF-8"?>
<svg width="264px" height="101px" viewBox="0 0 264 101" version="1.1" xmlns="http://www.w3.org/2000/svg" xmlns:xlink="http://www.w3.org/1999/xlink">
    <title>Artboard</title>
    <g id="Artboard" stroke="none" stroke-width="1" fill="none" fill-rule="evenodd">
        <g id="ratings-mobile-trustpilot-white" transform="translate(0.684674, 0.191622)">
            <g id="Group-2" transform="translate(-0.000000, 56.586899)">
                <polygon id="Star" stroke="#FF9B00" stroke-width="2.52" points="251.230775 40.1229858 247.063508 26.3720825 258.531266 17.6926553 244.143311 17.3999503 239.418335 3.82994866 234.693359 17.3999503 220.305405 17.6926553 231.773163 26.3720825 227.605895 40.1229858 239.418335 31.9171651"></polygon>
                <polygon id="Star" fill="#FF9B00" fill-rule="nonzero" points="22.7616421 33.4491446 8.69417363 43.2214792 13.6569853 26.8454902 0 16.509136 17.1346547 16.1605529 22.7616421 0 28.3886296 16.1605529 45.5232842 16.509136 31.8662989 26.8454902 36.8291106 43.2214792"></polygon>
                <polygon id="Star" fill="#FF9B00" fill-rule="nonzero" points="75.6661834 33.4491446 61.598715 43.2214792 66.5615266 26.8454902 52.9045413 16.509136 70.039196 16.1605529 75.6661834 0 81.2931709 16.1605529 98.4278256 16.509136 84.7708403 26.8454902 89.7336519 43.2214792"></polygon>
                <polygon id="Star" fill="#FF9B00" fill-rule="nonzero" points="131.089989 33.4491446 117.02252 43.2214792 121.985332 26.8454902 108.328347 16.509136 125.463001 16.1605529 131.089989 0 136.716976 16.1605529 153.851631 16.509136 140.194645 26.8454902 145.157457 43.2214792"></polygon>
                <polygon id="Star" fill="#FF9B00" fill-rule="nonzero" points="186.513794 33.4491446 172.446325 43.2214792 177.409137 26.8454902 163.752152 16.509136 180.886806 16.1605529 186.513794 0 192.140781 16.1605529 209.275435 16.509136 195.618451 26.8454902 200.581262 43.2214792"></polygon>
                <polygon id="Combined-Shape" fill="#FF9B00" fill-rule="nonzero" points="239.692494 0 242.063562 6.72126608 242.063562 34.7129186 239.692494 33.0877842 225.587988 42.7545457 230.563866 26.555471 216.870924 16.3307833 234.050693 15.9859659"></polygon>
            </g>
            <g id="873" transform="translate(21.921887, 0.000000)" fill="#000000" fill-rule="nonzero">
                <path d="M0.0260098766,0 L29.8593383,0 L29.8593383,5.61878076 L18.128884,5.61878076 L18.128884,37.2047307 L11.6784346,37.2047307 L11.6784346,5.61878076 L0,5.61878076 L0,0 L0.0260098766,0 Z M28.5848544,10.2660901 L34.0989482,10.2660901 L34.0989482,15.4647751 L34.2029877,15.4647751 C34.3850568,14.7296075 34.7231853,14.0206959 35.2173729,13.3380403 C35.7115605,12.6553847 36.3097877,11.9989851 37.0120545,11.4476094 C37.7143211,10.8699778 38.4946174,10.423626 39.3529434,10.0560422 C40.2112692,9.71471442 41.0956051,9.53092252 41.9799408,9.53092252 C42.6561975,9.53092252 43.1503854,9.55717851 43.410484,9.58343449 C43.6705829,9.60969048 43.9306816,9.66220245 44.2167902,9.68845844 L44.2167902,15.4122631 C43.8006322,15.3334952 43.3844741,15.2809832 42.9423064,15.2284712 C42.5001384,15.1759593 42.0839804,15.1497033 41.6678223,15.1497033 C40.6794471,15.1497033 39.7430915,15.3597512 38.8587558,15.753591 C37.9744198,16.1474307 37.2201335,16.7513184 36.5698865,17.5127419 C35.9196396,18.3004215 35.399442,19.2456369 35.0092939,20.4009003 C34.6191458,21.5561635 34.4370767,22.8689628 34.4370767,24.365554 L34.4370767,37.1784746 L28.5588445,37.1784746 L28.5588445,10.2660901 L28.5848544,10.2660901 Z M71.241052,37.2047307 L65.4668595,37.2047307 L65.4668595,33.4501248 L65.36282,33.4501248 C64.6345434,34.8154361 63.5681384,35.8919314 62.1375952,36.7058669 C60.707052,37.5198025 59.2504988,37.9398982 57.767936,37.9398982 C54.2566026,37.9398982 51.7076347,37.0734508 50.147042,35.3142997 C48.5864496,33.5551488 47.8061532,30.9032943 47.8061532,27.3587363 L47.8061532,10.2660901 L53.6843854,10.2660901 L53.6843854,26.7811045 C53.6843854,29.1441432 54.1265531,30.8245262 55.036899,31.7959977 C55.9212347,32.7674692 57.1957186,33.2663328 58.8083311,33.2663328 C60.056805,33.2663328 61.0711904,33.0825411 61.9035062,32.6887013 C62.7358223,32.2948615 63.4120792,31.7959977 63.9062669,31.1395981 C64.4264644,30.5094545 64.7906026,29.721775 65.0246915,28.8290714 C65.2587805,27.936368 65.36282,26.9648965 65.36282,25.9146571 L65.36282,10.2923461 L71.241052,10.2923461 L71.241052,37.2047307 L71.241052,37.2047307 Z M81.2548544,28.5665115 C81.4369237,30.2994065 82.0871705,31.507182 83.2055952,32.2160934 C84.3500298,32.8987492 85.7025434,33.2663328 87.289146,33.2663328 C87.8353533,33.2663328 88.4595903,33.2138208 89.161857,33.1350529 C89.8641236,33.056285 90.5403805,32.872493 91.1386076,32.6361893 C91.7628447,32.3998853 92.2570323,32.0323017 92.6731904,31.559694 C93.0633385,31.0870861 93.2454076,30.4831984 93.2193978,29.721775 C93.1933879,28.9603513 92.9072793,28.3302078 92.3870818,27.8576001 C91.8668842,27.3587363 91.2166372,26.9911526 90.4103311,26.6760807 C89.6040249,26.3872648 88.6936793,26.1247049 87.6532842,25.9146571 C86.6128891,25.7046092 85.572494,25.4683055 84.5060892,25.2320015 C83.4136742,24.9956976 82.3472694,24.6806259 81.3328842,24.3392979 C80.318499,23.9979701 79.4081534,23.5253624 78.601847,22.9214748 C77.7955409,22.3438431 77.1452941,21.5824196 76.6771162,20.6634601 C76.1829286,19.7445007 75.9488396,18.6154933 75.9488396,17.2501821 C75.9488396,15.7798469 76.312978,14.5720716 77.0152447,13.5743442 C77.7175113,12.5766168 78.627857,11.7889372 79.694262,11.1850496 C80.7866767,10.5811619 81.983131,10.1610662 83.3096347,9.89850632 C84.6361384,9.66220245 85.9106224,9.53092252 87.1070767,9.53092252 C88.4856003,9.53092252 89.812104,9.68845844 91.0605781,9.97727426 C92.3090522,10.2660901 93.4534866,10.7386978 94.4678718,11.4213534 C95.4822571,12.0777531 96.314573,12.9442006 96.9908299,13.99444 C97.6670866,15.0446794 98.0832447,16.3312226 98.2653138,17.8278138 L92.1269829,17.8278138 C91.8408743,16.4099906 91.2166372,15.4385191 90.2022521,14.9659114 C89.1878669,14.4670477 88.0174224,14.2307438 86.7169286,14.2307438 C86.3007705,14.2307438 85.8065829,14.2569998 85.2343657,14.3357678 C84.6621483,14.4145357 84.1419508,14.5458156 83.6217532,14.7296075 C83.1275656,14.9133994 82.7114076,15.2022153 82.3472694,15.5697991 C82.0091409,15.9373828 81.8270718,16.4099906 81.8270718,17.0138782 C81.8270718,17.7490458 82.0871705,18.3266775 82.5813583,18.7730292 C83.075546,19.219381 83.7257927,19.5869647 84.5320989,19.9020366 C85.3384052,20.1908524 86.2487509,20.4534122 87.289146,20.6634601 C88.3295409,20.873508 89.3959459,21.1098119 90.4883607,21.3461157 C91.5547657,21.5824196 92.5951608,21.8974915 93.6355559,22.2388193 C94.6759508,22.580147 95.5862966,23.0527547 96.3926028,23.6566424 C97.1989089,24.26053 97.8491557,24.9956976 98.3433435,25.8884012 C98.8375312,26.7811045 99.0976298,27.9101119 99.0976298,29.2229112 C99.0976298,30.8245262 98.7334917,32.1635816 98.0052151,33.2925889 C97.2769385,34.3953402 96.3405829,35.3142997 95.1961483,35.9969554 C94.0517137,36.679611 92.7512199,37.2047307 91.3466867,37.5198025 C89.9421534,37.8348742 88.5376199,37.9924102 87.1590966,37.9924102 C85.4684545,37.9924102 83.907862,37.8086183 82.4773188,37.4147785 C81.0467756,37.0209387 79.7983015,36.443307 78.7579064,35.6818836 C77.7175113,34.894204 76.8851952,33.9227325 76.2869681,32.7674692 C75.688741,31.6122058 75.3766224,30.2206386 75.3246026,28.6190235 L81.2548544,28.6190235 L81.2548544,28.5665115 Z M100.658222,10.2660901 L105.105911,10.2660901 L105.105911,2.17924675 L110.984143,2.17924675 L110.984143,10.2660901 L116.290158,10.2660901 L116.290158,14.7033516 L110.984143,14.7033516 L110.984143,29.0916312 C110.984143,29.721775 111.010153,30.2468947 111.062173,30.7195024 C111.114193,31.1658542 111.244242,31.559694 111.426311,31.8747656 C111.608381,32.1898375 111.894489,32.4261415 112.284637,32.5836773 C112.674786,32.7412131 113.168973,32.8199812 113.84523,32.8199812 C114.261388,32.8199812 114.677546,32.8199812 115.093704,32.7937251 C115.509862,32.7674692 115.92602,32.7149572 116.342178,32.6099332 L116.342178,37.2047307 C115.691931,37.2834986 115.041684,37.3360106 114.443457,37.4147785 C113.81922,37.4935464 113.194983,37.5198025 112.544736,37.5198025 C110.984143,37.5198025 109.735669,37.3622665 108.799314,37.0734508 C107.862958,36.7846348 107.108672,36.3382832 106.588474,35.7606515 C106.042267,35.1830197 105.704139,34.4741083 105.49606,33.6076606 C105.31399,32.7412131 105.183941,31.7434857 105.157931,30.6407345 L105.157931,14.7558635 L100.710242,14.7558635 L100.710242,10.2660901 L100.658222,10.2660901 Z M120.451739,10.2660901 L126.017852,10.2660901 L126.017852,13.915672 L126.121892,13.915672 C126.954208,12.3403129 128.098642,11.2375615 129.581205,10.5549059 C131.063768,9.87225034 132.650371,9.53092252 134.393033,9.53092252 C136.499832,9.53092252 138.320524,9.89850632 139.881116,10.6599299 C141.441709,11.3950975 142.742203,12.4190809 143.782598,13.7318801 C144.822993,15.0446794 145.577279,16.5675265 146.097477,18.3004215 C146.617674,20.0333165 146.877773,21.8974915 146.877773,23.8666902 C146.877773,25.6783533 146.643684,27.4375042 146.175506,29.1178873 C145.707329,30.8245262 145.005062,32.3211174 144.068707,33.6339167 C143.132351,34.946716 141.935897,35.9706993 140.479344,36.7583789 C139.02279,37.5460585 137.332149,37.9398982 135.355398,37.9398982 C134.497072,37.9398982 133.638746,37.8611303 132.78042,37.7035943 C131.922094,37.5460585 131.089778,37.2834986 130.309482,36.9421708 C129.529186,36.6008431 128.774899,36.1544913 128.124652,35.6031156 C127.448395,35.0517398 126.902188,34.4215963 126.43401,33.7126846 L126.329971,33.7126846 L126.329971,47.1557489 L120.451739,47.1557489 L120.451739,10.2660901 L120.451739,10.2660901 Z M140.999541,23.7616664 C140.999541,22.5538911 140.843482,21.3723718 140.531363,20.2171084 C140.219245,19.061845 139.751067,18.0641176 139.12683,17.1714141 C138.502593,16.2787107 137.722297,15.5697991 136.811951,15.0446794 C135.875595,14.5195597 134.80919,14.2307438 133.612736,14.2307438 C131.141798,14.2307438 129.269087,15.0971913 128.020613,16.8300863 C126.772139,18.5629813 126.147902,20.873508 126.147902,23.7616664 C126.147902,25.1269775 126.303961,26.3872648 126.642089,27.5425282 C126.980218,28.6977915 127.448395,29.6955189 128.124652,30.5357104 C128.774899,31.375902 129.555195,32.0323017 130.465541,32.5049094 C131.375887,33.003773 132.442292,33.2400769 133.638746,33.2400769 C134.99126,33.2400769 136.109684,32.9512612 137.04604,32.3998853 C137.982395,31.8485097 138.736682,31.1133422 139.334909,30.2468947 C139.933136,29.3541911 140.375304,28.3564637 140.635403,27.2274563 C140.869492,26.098449 140.999541,24.9431858 140.999541,23.7616664 L140.999541,23.7616664 Z M151.377482,0 L157.255714,0 L157.255714,5.61878076 L151.377482,5.61878076 L151.377482,0 Z M151.377482,10.2660901 L157.255714,10.2660901 L157.255714,37.2047307 L151.377482,37.2047307 L151.377482,10.2660901 Z M162.509709,0 L168.387941,0 L168.387941,37.2047307 L162.509709,37.2047307 L162.509709,0 Z M186.412786,37.9398982 C184.279976,37.9398982 182.381255,37.5723144 180.716623,36.8634029 C179.05199,36.1544913 177.647457,35.1567638 176.477013,33.9227325 C175.332578,32.6624452 174.448242,31.1658542 173.850015,29.432959 C173.251788,27.700064 172.93967,25.7833771 172.93967,23.7091544 C172.93967,21.6611875 173.251788,19.7707566 173.850015,18.0378616 C174.448242,16.3049666 175.332578,14.8083755 176.477013,13.5480882 C177.621447,12.2878009 179.05199,11.3163295 180.716623,10.6074179 C182.381255,9.89850632 184.279976,9.53092252 186.412786,9.53092252 C188.545596,9.53092252 190.444317,9.89850632 192.108949,10.6074179 C193.773581,11.3163295 195.178114,12.3140569 196.348558,13.5480882 C197.492993,14.8083755 198.377329,16.3049666 198.975556,18.0378616 C199.573783,19.7707566 199.885902,21.6611875 199.885902,23.7091544 C199.885902,25.7833771 199.573783,27.700064 198.975556,29.432959 C198.377329,31.1658542 197.492993,32.6624452 196.348558,33.9227325 C195.204124,35.1830197 193.773581,36.1544913 192.108949,36.8634029 C190.444317,37.5723144 188.545596,37.9398982 186.412786,37.9398982 Z M186.412786,33.2400769 C187.71328,33.2400769 188.857714,32.9512612 189.820079,32.3998853 C190.782445,31.8485097 191.562741,31.1133422 192.186978,30.2206386 C192.811215,29.3279352 193.253383,28.3039517 193.565502,27.1749443 C193.85161,26.045937 194.00767,24.8906737 194.00767,23.7091544 C194.00767,22.5538911 193.85161,21.4248836 193.565502,20.2696203 C193.279393,19.114357 192.811215,18.1166296 192.186978,17.2239261 C191.562741,16.3312226 190.782445,15.622311 189.820079,15.0709354 C188.857714,14.5195597 187.71328,14.2307438 186.412786,14.2307438 C185.112292,14.2307438 183.967857,14.5195597 183.005492,15.0709354 C182.043126,15.622311 181.26283,16.3574786 180.638593,17.2239261 C180.014356,18.1166296 179.572188,19.114357 179.26007,20.2696203 C178.973961,21.4248836 178.817902,22.5538911 178.817902,23.7091544 C178.817902,24.8906737 178.973961,26.045937 179.26007,27.1749443 C179.546178,28.3039517 180.014356,29.3279352 180.638593,30.2206386 C181.26283,31.1133422 182.043126,31.8485097 183.005492,32.3998853 C183.967857,32.9775171 185.112292,33.2400769 186.412786,33.2400769 L186.412786,33.2400769 Z M201.602554,10.2660901 L206.050243,10.2660901 L206.050243,2.17924675 L211.928474,2.17924675 L211.928474,10.2660901 L217.234488,10.2660901 L217.234488,14.7033516 L211.928474,14.7033516 L211.928474,29.0916312 C211.928474,29.721775 211.954485,30.2468947 212.006504,30.7195024 C212.058524,31.1658542 212.188573,31.559694 212.370642,31.8747656 C212.552712,32.1898375 212.83882,32.4261415 213.228968,32.5836773 C213.619116,32.7412131 214.113303,32.8199812 214.789562,32.8199812 C215.205719,32.8199812 215.621876,32.8199812 216.038035,32.7937251 C216.454193,32.7674692 216.870352,32.7149572 217.286509,32.6099332 L217.286509,37.2047307 C216.636262,37.2834986 215.986015,37.3360106 215.387788,37.4147785 C214.76355,37.4935464 214.139315,37.5198025 213.489067,37.5198025 C211.928474,37.5198025 210.68,37.3622665 209.743645,37.0734508 C208.807289,36.7846348 208.053003,36.3382832 207.532805,35.7606515 C206.986598,35.1830197 206.64847,34.4741083 206.440391,33.6076606 C206.258322,32.7412131 206.128272,31.7434857 206.102262,30.6407345 L206.102262,14.7558635 L201.654573,14.7558635 L201.654573,10.2660901 L201.602554,10.2660901 Z" id="Shape"></path>
            </g>
        </g>
    </g>
</svg>