<?xml version="1.0" encoding="UTF-8"?>
<svg width="844px" height="140px" viewBox="0 0 844 140" version="1.1" xmlns="http://www.w3.org/2000/svg" xmlns:xlink="http://www.w3.org/1999/xlink">
    <!-- Generator: Sketch 59.1 (86144) - https://sketch.com -->
    <title>Group 2</title>
    <desc>Created with Sketch.</desc>
    <g id="Page-1" stroke="none" stroke-width="1" fill="none" fill-rule="evenodd">
        <g id="cover-image-vertical" transform="translate(-244.000000, -5462.000000)">
            <g id="Group-2" transform="translate(241.000000, 5462.000000)">
                <path d="M811.529653,129.224508 L798.130948,84.9368341 L835.00237,56.9829147 L788.741861,56.0401968 L773.55,12.3351546 L758.358139,56.0401968 L712.09763,56.9829147 L748.969052,84.9368341 L735.570347,129.224508 L773.55,102.795938 L811.529653,129.224508 Z" id="Star" stroke="#FF9B00" stroke-width="8.1"></path>
                <polygon id="Star" fill="#FF9B00" points="76.95 107.73 31.7199248 139.203858 47.6764804 86.4615431 3.76620107 53.1711423 58.8579699 52.0484569 76.95 0 95.0420301 52.0484569 150.133799 53.1711423 106.22352 86.4615431 122.180075 139.203858"></polygon>
                <polygon id="Star" fill="#FF9B00" points="247.05 107.73 201.819925 139.203858 217.77648 86.4615431 173.866201 53.1711423 228.95797 52.0484569 247.05 0 265.14203 52.0484569 320.233799 53.1711423 276.32352 86.4615431 292.280075 139.203858"></polygon>
                <polygon id="Star" fill="#FF9B00" points="425.25 107.73 380.019925 139.203858 395.97648 86.4615431 352.066201 53.1711423 407.15797 52.0484569 425.25 0 443.34203 52.0484569 498.433799 53.1711423 454.52352 86.4615431 470.480075 139.203858"></polygon>
                <polygon id="Star" fill="#FF9B00" points="603.45 107.73 558.219925 139.203858 574.17648 86.4615431 530.266201 53.1711423 585.35797 52.0484569 603.45 0 621.54203 52.0484569 676.633799 53.1711423 632.72352 86.4615431 648.680075 139.203858"></polygon>
                <path d="M774.431485,-1.66533454e-13 L790.156,44.632 L790.156,117.362 L774.431485,106.566163 L729.082323,137.7 L745.080891,85.5274752 L701.055,52.5967197 L756.29182,51.4861631 L774.431485,-1.66533454e-13 Z" id="Combined-Shape" fill="#FF9B00"></path>
            </g>
        </g>
    </g>
</svg>