<?xml version="1.0" encoding="UTF-8"?>
<svg width="29px" height="26px" viewBox="0 0 29 26" version="1.1" xmlns="http://www.w3.org/2000/svg" xmlns:xlink="http://www.w3.org/1999/xlink">
    <!-- Generator: Sketch 59.1 (86144) - https://sketch.com -->
    <title>Artboard</title>
    <desc>Created with Sketch.</desc>
    <g id="Artboard" stroke="none" stroke-width="1" fill="none" fill-rule="evenodd">
        <path d="M26.5893819,15.3013555 L28.9694467,4.73885547 C29.1412818,3.97622266 28.5665681,3.25 27.7911704,3.25 L8.01568262,3.25 L7.55419987,0.974492187 C7.43920678,0.407316406 6.94439415,0 6.37038532,0 L1.20833365,0 C0.540981042,0 0,0.545644531 0,1.21875 L0,2.03125 C0,2.70435547 0.540981042,3.25 1.20833365,3.25 L4.72674948,3.25 L8.26354206,20.6900586 C7.41740643,21.1808594 6.84722399,22.1011172 6.84722399,23.15625 C6.84722399,24.7268125 8.10952987,26 9.66666916,26 C11.2238085,26 12.4861143,24.7268125 12.4861143,23.15625 C12.4861143,22.3603047 12.1615257,21.6411914 11.6390724,21.125 L22.1942193,21.125 C21.6718164,21.6411914 21.3472277,22.3603047 21.3472277,23.15625 C21.3472277,24.7268125 22.6095336,26 24.1666729,26 C25.7238122,26 26.9861181,24.7268125 26.9861181,23.15625 C26.9861181,22.0303281 26.3372429,21.0573594 25.3962027,20.5966211 L25.6739684,19.3638555 C25.8458035,18.6012227 25.2710899,17.875 24.4956921,17.875 L10.9815879,17.875 L10.6520652,16.25 L25.4111055,16.25 C25.9752966,16.25 26.4643697,15.8562422 26.5893819,15.3013555 Z" id="Path" fill="#0271E3" fill-rule="nonzero"></path>
    </g>
</svg>
