<?xml version="1.0" encoding="UTF-8"?>
<svg width="105px" height="18px" viewBox="0 0 105 18" version="1.1" xmlns="http://www.w3.org/2000/svg" xmlns:xlink="http://www.w3.org/1999/xlink">
    <!-- Generator: Sketch 59.1 (86144) - https://sketch.com -->
    <title>Artboard</title>
    <desc>Created with Sketch.</desc>
    <g id="Artboard" stroke="none" stroke-width="1" fill="none" fill-rule="evenodd">
        <g id="Group-2" fill="#FF9B00">
            <polygon id="Star" points="9.5 13.3 3.9160401 17.1856614 5.88598524 10.6742646 0.464963095 6.56433855 7.26641604 6.42573542 9.5 0 11.733584 6.42573542 18.5350369 6.56433855 13.1140148 10.6742646 15.0839599 17.1856614"></polygon>
            <polygon id="Star" points="30.5 13.3 24.9160401 17.1856614 26.8859852 10.6742646 21.4649631 6.56433855 28.266416 6.42573542 30.5 0 32.733584 6.42573542 39.5350369 6.56433855 34.1140148 10.6742646 36.0839599 17.1856614"></polygon>
            <polygon id="Star" points="52.5 13.3 46.9160401 17.1856614 48.8859852 10.6742646 43.4649631 6.56433855 50.266416 6.42573542 52.5 0 54.733584 6.42573542 61.5350369 6.56433855 56.1140148 10.6742646 58.0839599 17.1856614"></polygon>
            <polygon id="Star" points="74.5 13.3 68.9160401 17.1856614 70.8859852 10.6742646 65.4649631 6.56433855 72.266416 6.42573542 74.5 0 76.733584 6.42573542 83.5350369 6.56433855 78.1140148 10.6742646 80.0839599 17.1856614"></polygon>
            <polygon id="Star" points="95.6088253 13.1563164 90.0101634 17 91.9852952 10.5589476 86.55 6.49342219 93.3693606 6.35631643 95.6088253 -1.66533454e-13 97.8482901 6.35631643 104.667651 6.49342219 99.2323555 10.5589476 101.207487 17"></polygon>
        </g>
    </g>
</svg>